<?xml version="1.0" standalone="no"?><!DOCTYPE svg PUBLIC "-//W3C//DTD SVG 1.1//EN" "http://www.w3.org/Graphics/SVG/1.1/DTD/svg11.dtd"><svg t="1756916450077" class="icon" viewBox="0 0 1024 1024" version="1.1" xmlns="http://www.w3.org/2000/svg" p-id="10128" xmlns:xlink="http://www.w3.org/1999/xlink" width="200" height="200"><path d="M422.8 699.1H454v107.4h-31.2zM563 699.1h36.5v107.4H563z" fill="#2280BF" p-id="10129"></path><path d="M670.8 832.7l-370.3-10.2c-4.1 0-7.5-3.5-7.5-7.9l-2-9.7c-6.2-14.3 18.3-21.9 26.8-21.9 10.5 0 364.7 1 364.7 1 4.1 0 5.5 0.5 5.5 4.9v25.7c0 9.2-6.5 18.1-17.2 18.1zM889.2 196l-734.7 1c-13.1 0-56.5 15.3-56.5 59.5L110.9 666c0 13.3 10.7 24 23.8 24l697 22.7c52.7 3 76-14.3 81.3-62.7V220c0-13.3-10.7-24-23.8-24z m-144 444H239.5V320.2h505.7V640z" fill="#2280BF" p-id="10130"></path><path d="M842.2 232.5H122c-13.3 0-24 10.7-24 24v432.1c0 13.3 10.7 24 24 24h261.1c1.7 0 3 1.4 3 3v81h-93c-1.7 0-3 1.3-3 3v30c0 1.6 1.3 3 3 3h378.1c1.7 0 3-1.4 3-3v-30c0-1.7-1.3-3-3-3h-93v-81c0-1.6 1.4-3 3-3h261.1c13.3 0 24-10.7 24-24V256.5c-0.1-13.2-10.8-24-24.1-24zM412.1 594.1h-56.9V404.5h-63.9v-47.1h185.1v47.1h-64.3v189.6z m118 202.6h-96v-72c0-6.6 5.4-12 12-12h72c6.6 0 12 5.4 12 12v72z m91.6-202.6h-68.1l-70.9-236.7h60.1l27 107.8c7 25.4 11.5 49.9 18.5 75.7h1.6c6.7-25.8 11.8-50.3 18.5-75.7l26.7-107.8H693l-71.3 236.7z" fill="#4EB3FF" p-id="10131"></path></svg>