<?xml version="1.0" standalone="no"?><!DOCTYPE svg PUBLIC "-//W3C//DTD SVG 1.1//EN" "http://www.w3.org/Graphics/SVG/1.1/DTD/svg11.dtd"><svg t="1756915963502" class="icon" viewBox="0 0 1024 1024" version="1.1" xmlns="http://www.w3.org/2000/svg" p-id="4138" xmlns:xlink="http://www.w3.org/1999/xlink" width="200" height="200"><path d="M657.69984 903.3984H371.12832c-13.88032 0-25.2416-19.72224-25.2416-43.81184s11.36128-43.80672 25.2416-43.80672h286.57152c13.8752 0 25.23648 19.712 25.23648 43.80672s-11.36128 43.81184-25.23648 43.81184m-3.93216-337.1264h-54.3488L489.6512 323.23584h75.8016l52.38272 135.95648q0.70656 2.1504 2.944 10.368t5.8112 22.16448q2.8672-11.12064 5.36576-20.09088t3.75296-12.45184l52.02944-135.95136h75.776zM489.6512 380.672H431.01184v185.6H359.68V380.672H301.056V323.23584h188.5952V380.672z m446.21312-262.07232H90.68544a36.15744 36.15744 0 0 0-35.11808 36.92032v551.9872a36.15744 36.15744 0 0 0 35.11808 36.92544h845.17888a36.15232 36.15232 0 0 0 35.11296-36.92544V155.52a36.15232 36.15232 0 0 0-35.11296-36.92032z" fill="#8DA0C8" p-id="4139"></path></svg>