<?xml version="1.0" standalone="no"?><!DOCTYPE svg PUBLIC "-//W3C//DTD SVG 1.1//EN" "http://www.w3.org/Graphics/SVG/1.1/DTD/svg11.dtd"><svg t="1756915986564" class="icon" viewBox="0 0 1075 1024" version="1.1" xmlns="http://www.w3.org/2000/svg" p-id="5420" xmlns:xlink="http://www.w3.org/1999/xlink" width="209.9609375" height="200"><path d="M873.37162989 289.90152442H195.99765576c-29.54279003 0-55.92028096 11.6060959-74.91207568 31.65298945-20.04689355 18.99179385-31.65298945 45.36928477-31.65298945 74.9120748v432.59085527c0 28.48769033 11.6060959 54.86518213 31.65298945 74.91207569 18.99179385 18.99179385 45.36928477 30.59788974 74.91207568 30.59788974h677.37397412c29.54279003 0 55.92028096-11.6060959 74.91207481-30.59788974 20.04689355-20.04689355 31.65298945-46.42438447 31.65298945-74.91207569V396.46658867c0-29.54279003-11.6060959-55.92028096-31.65298945-74.9120748-18.99179385-20.04689355-45.36928477-31.65298945-74.91207481-31.65298945zM457.66236816 453.44196934l126.61195782 72.80187626 127.66705751 73.8569751c7.38569795 4.22039883 9.49589648 12.6611956 5.27549854 18.99179385-1.05509971 2.11019942-3.16529912 4.22039883-5.27549854 5.27549766l-127.66705751 73.85697597-127.66705752 73.8569751c-7.38569795 4.22039883-15.82649473 2.11019942-18.99179385-5.27549854-1.05509971-2.11019942-2.11019942-4.22039883-2.11019941-6.33059735V463.99296641c0-7.38569795 6.33059824-13.71629531 13.71629531-13.7162962 3.16529912 0 5.27549854 1.05509971 8.44079766 3.16529913z" fill="#ffcf1c" p-id="5421"></path><path d="M725.65767881 66.22039883c5.27549854-5.27549854 13.71629531-5.27549854 18.99179385 0s5.27549854 13.71629531 0 18.99179385L567.39273154 262.46893291h305.97889835c36.92848799 0 70.69167685 14.77139502 94.95896835 39.0386874s39.0386874 58.03048037 39.03868653 94.95896836v432.59085527c0 36.92848799-14.77139502 69.63657714-39.03868653 93.90386866s-58.03048037 39.0386874-94.95896836 39.0386874H195.99765576c-36.92848799 0-70.69167685-14.77139502-94.95896836-39.0386874S62 865.98593193 62 829.05744394V396.46658867c0-36.92848799 14.77139502-70.69167685 39.0386874-94.95896836s58.03048037-39.0386874 94.95896836-39.0386874h305.97889746L324.71981211 85.21219268c-5.27549854-5.27549854-5.27549854-13.71629531 0-18.99179385s13.71629531-5.27549854 18.99179385 0l190.97303642 190.97303643L725.65767881 66.22039883z m147.71395107 223.68112559H195.99765576c-29.54279003 0-55.92028096 11.6060959-74.91207568 31.65298945-20.04689355 18.99179385-31.65298945 45.36928477-31.65298945 74.9120748v432.59085527c0 28.48769033 11.6060959 54.86518213 31.65298945 74.91207569 18.99179385 18.99179385 45.36928477 30.59788974 74.91207568 30.59788974h677.37397412c29.54279003 0 55.92028096-11.6060959 74.91207481-30.59788974 20.04689355-20.04689355 31.65298945-46.42438447 31.65298945-74.91207569V396.46658867c0-29.54279003-11.6060959-55.92028096-31.65298945-74.9120748-18.99179385-20.04689355-45.36928477-31.65298945-74.91207481-31.65298945zM457.66236816 453.44196934l126.61195782 72.80187626 127.66705751 73.8569751c7.38569795 4.22039883 9.49589648 12.6611956 5.27549854 18.99179385-1.05509971 2.11019942-3.16529912 4.22039883-5.27549854 5.27549766l-127.66705751 73.85697597-127.66705752 73.8569751c-7.38569795 4.22039883-15.82649473 2.11019942-18.99179385-5.27549854-1.05509971-2.11019942-2.11019942-4.22039883-2.11019941-6.33059735V463.99296641c0-7.38569795 6.33059824-13.71629531 13.71629531-13.7162962 3.16529912 0 5.27549854 1.05509971 8.44079766 3.16529913z m112.8956625 97.06916777l-107.62016396-62.2508792v247.94841709l107.62016396-61.1957795 107.62016397-62.25087919-107.62016397-62.2508792z" fill="" p-id="5422"></path></svg>