<?xml version="1.0" standalone="no"?><!DOCTYPE svg PUBLIC "-//W3C//DTD SVG 1.1//EN" "http://www.w3.org/Graphics/SVG/1.1/DTD/svg11.dtd"><svg t="1756916352726" class="icon" viewBox="0 0 1024 1024" version="1.1" xmlns="http://www.w3.org/2000/svg" p-id="8763" xmlns:xlink="http://www.w3.org/1999/xlink" width="200" height="200"><path d="M761.5 256.2H512.6c0.4-2.2 0.7-4.5 0.7-6.9 0-14.1-8.8-26.1-21.2-31l82.6-92.6c2.5 0.7 5.1 1.2 7.8 1.2 16.4 0 29.7-13.3 29.7-29.7s-13.3-29.7-29.7-29.7-29.7 13.3-29.7 29.7c0 4.5 1.1 8.8 2.9 12.6L461 215.9h-31L300.3 100.2c0.1-1 0.3-2 0.3-3 0-16.4-13.3-29.7-29.7-29.7s-29.7 13.3-29.7 29.7 13.3 29.7 29.7 29.7c6.1 0 11.8-1.9 16.5-5l105.7 94.3c-17.2 1.4-30.7 15.6-30.7 33.1 0 2.4 0.3 4.7 0.7 6.9H262.5C141.9 256.2 64 321.1 64 421.6v375.5c0 99.8 74.2 159.4 198.5 159.4h498.9c124.3 0 198.5-59.6 198.5-159.4V421.6c0.1-100.5-77.8-165.4-198.4-165.4zM928 797.1c0 115-116.5 127.4-166.6 127.4H262.5c-50.1 0-166.6-12.4-166.6-127.4V421.6c0-98.4 86-133.5 166.6-133.5h498.9c80.5 0 166.6 35.1 166.6 133.5v375.5z m-96.9-374.4c34.1 0 61.7 27.6 61.7 61.7s-27.7 61.7-61.7 61.7c-34.1 0-61.7-27.6-61.7-61.7s27.6-61.7 61.7-61.7z m0 174.6c34.1 0 61.7 27.6 61.7 61.7s-27.7 61.7-61.7 61.7c-34.1 0-61.7-27.6-61.7-61.7 0-34 27.6-61.7 61.7-61.7z m-551.7 268c-107.3 0-130.2-81.7-130.2-182.5V577.1l111 71s43.2-48.8 54.5-61.6c9.2 12.7 43.1 59.3 43.1 59.3s50.9-144.5 61.2-173.7c16.6 27.5 110 181.8 110 181.8s54.5-58.8 64.1-69.2c10.7 9.1 62.6 52.9 62.6 52.9l89.6-52.9v98.1c0 100.8-13.3 182.5-120.6 182.5H279.4z m345.3-499.8c107.3 0 120.6 81.7 120.6 182.5v15.4c-27 15.9-80.2 47.4-87.7 51.8-8.4-7.1-66-55.9-66-55.9l-59.5 64.3-117.5-194.1-6.4 18.2s-46.6 132.2-56 159.2c-11.3-15.5-36-49.5-36-49.5s-50.7 57.3-59.2 66.9c-9.6-6.1-81.7-52.3-107.7-68.9V548c0-100.8 22.9-182.5 130.2-182.5h345.2z" p-id="8764"></path></svg>